<svg width="32" height="32" viewBox="0 0 32 32" fill="none" xmlns="http://www.w3.org/2000/svg">
<g id="iconfinder_Checkmark_1891021 1">
<g id="Group">
<path id="Vector" d="M16 32C24.8366 32 32 24.8366 32 16C32 7.16344 24.8366 0 16 0C7.16344 0 0 7.16344 0 16C0 24.8366 7.16344 32 16 32Z" fill="#31AF91"/>
</g>
<g id="ani">
<path id="Vector_2" d="M13.575 24.3L6.2 16.925C6.1 16.825 6.1 16.675 6.2 16.575L8.325 14.45C8.425 14.35 8.575 14.35 8.675 14.45L13.75 19.525L23.3 9.97502C23.4 9.87502 23.55 9.87502 23.65 9.97502L25.775 12.1C25.875 12.2 25.875 12.35 25.775 12.45L13.925 24.3C13.825 24.4 13.675 24.4 13.575 24.3Z" fill="white"/>
</g>
</g>
</svg>
